<?xml version="1.0" encoding="UTF-8"?><!DOCTYPE svg PUBLIC "-//W3C//DTD SVG 1.1//EN" "http://www.w3.org/Graphics/SVG/1.1/DTD/svg11.dtd"><svg xmlns="http://www.w3.org/2000/svg"><symbol id="uEA01-dragger" viewBox="0 0 20 18"><title>dragger</title><path d="M19 9.998H1a1 1 0 0 1 0-2.001h18a1 1 0 0 1 0 2.001zm0-8.001H1a1 1 0 1 1 0-2h18a1 1 0 1 1 0 2zM1 15.998h18a.999.999 0 1 1 0 2H1a1 1 0 1 1 0-2z" fill="#000" fill-rule="evenodd"/></symbol><symbol id="uEA04-trash" viewBox="0 0 26 32"><title>trash</title><path d="M24 10.001V30a2 2 0 0 1-2 2.001H4A2 2 0 0 1 2 30V10.001A2 2 0 0 1 0 8V6a2 2 0 0 1 2-2h6V1.001A1 1 0 0 1 9 0h8a1 1 0 0 1 1 1.001V4h6a2 2 0 0 1 2 2v2a2 2 0 0 1-2 2.001zM4 11v18a1 1 0 0 0 1 1h16a1 1 0 0 0 1-1V10.001H4V11zm12-9h-6v2h6V2zm7 4H3a1 1 0 1 0 0 2h20a1 1 0 1 0 0-2zM10 28.001H8V14h2v14.001zm4 0h-2v-14h2v14zm4 0h-2V14h2v14.001z" fill="#000" fill-rule="evenodd"/></symbol><symbol id="uEA05-title" viewBox="0 0 20 32"><title>title</title><path d="M10 23.999l-10 8V0h20v31.999l-10-8zM18 2H2v26l8-7.001L18 28V2z" fill="#000" fill-rule="evenodd"/></symbol><symbol id="uEA06-settings" viewBox="0 0 32 32"><title>settings</title><path d="M30 19l-2.558.426a11.757 11.757 0 0 1-.928 2.243l1.506 2.109a2 2 0 0 1 0 2.829l-1.414 1.414a2 2 0 0 1-2.829 0l-2.108-1.506c-.71.383-1.456.692-2.243.929L19 30.001a2 2 0 0 1-2 2h-2a2 2 0 0 1-2-2l-.427-2.557a11.985 11.985 0 0 1-2.243-.929l-2.108 1.506a2 2 0 0 1-2.828 0l-1.415-1.414a2 2 0 0 1 0-2.829l1.506-2.109a11.887 11.887 0 0 1-.928-2.243L2 19a2 2 0 0 1-2-2.001v-1.998c0-1.105.896-2.002 2-2.002l2.557-.426c.235-.787.545-1.533.928-2.243L3.979 8.222a2 2 0 0 1 0-2.829l1.415-1.414c.78-.78 2.047-.78 2.828 0l2.108 1.507c.71-.384 1.456-.693 2.243-.929L13 2a2 2 0 0 1 2-2h2a2 2 0 0 1 2 2l.426 2.557c.787.236 1.533.545 2.243.929l2.108-1.507a2.003 2.003 0 0 1 2.829 0l1.414 1.414a2 2 0 0 1 0 2.829l-1.507 2.108c.385.71.693 1.456.929 2.243l2.558.426c1.104 0 2 .896 2 2.002v1.998A2 2 0 0 1 30 19zm-1-3.999l-3.14-.524a9.93 9.93 0 0 0-1.815-4.367l1.854-2.596A1 1 0 0 0 24.484 6.1l-2.599 1.856a9.947 9.947 0 0 0-4.36-1.803L17 2.999a1 1 0 0 0-2 0l-.526 3.154a9.954 9.954 0 0 0-4.36 1.803L7.515 6.1A1 1 0 1 0 6.1 7.514l1.854 2.596a9.918 9.918 0 0 0-1.815 4.367L3 15.001a.999.999 0 1 0 0 1.998l3.139.524a9.926 9.926 0 0 0 1.815 4.366L6.1 24.485a1 1 0 0 0 1.415 1.414l2.599-1.856a9.949 9.949 0 0 0 4.36 1.804L15 29.001a1 1 0 0 0 2 0l.525-3.154a9.944 9.944 0 0 0 4.36-1.804l2.599 1.856a1 1 0 0 0 1.415-1.414l-1.854-2.596a9.92 9.92 0 0 0 1.815-4.366l3.14-.524a1 1 0 1 0 0-1.998zM16 21a5 5 0 1 1 0-10 5 5 0 0 1 0 10zm0-8.001a3 3 0 1 0 0 6 3 3 0 0 0 0-6z" fill="#000" fill-rule="evenodd"/></symbol><symbol id="uEA07-arrow-down" viewBox="0 0 24 14"><title>arrow-down</title><path d="M23.705 1.626l-10.933 11.92c-.034.05-.022.117-.067.16a.933.933 0 0 1-.717.272.944.944 0 0 1-.71-.271c-.043-.044-.031-.11-.064-.157L.279 1.629a.955.955 0 0 1 0-1.35.955.955 0 0 1 1.348 0l10.365 11.303L22.358.28a.951.951 0 1 1 1.347 1.346z" fill="#000" fill-rule="evenodd"/></symbol></svg>